<svg xmlns:inkscape="http://www.inkscape.org/namespaces/inkscape" xmlns:sodipodi="http://sodipodi.sourceforge.net/DTD/sodipodi-0.dtd" xmlns="http://www.w3.org/2000/svg" xmlns:svg="http://www.w3.org/2000/svg" xmlns:rdf="http://www.w3.org/1999/02/22-rdf-syntax-ns#" xmlns:cc="http://creativecommons.org/ns#" xmlns:dc="http://purl.org/dc/elements/1.1/" viewBox="0 0 10.583333 13.2291675" version="1.1" x="0px" y="0px"><g><path style="color:#000000;paint-order:fill markers stroke;" d="m 7.8874271,2.431563 a 0.2645789,0.2645789 0 0 0 -0.1871,0.077 l -0.4365,0.4364 c -0.6241,-0.2607 -1.2942,-0.3958 -1.9718,-0.396 a 0.26460536,0.26460536 0 0 0 -1e-4,0 v 0 c -1.85,10e-5 -3.557299,0.9987 -4.46419897,2.6112 a 0.26460536,0.26460536 0 0 0 -10e-5,0.2592 c 0.46719997,0.8322 1.15649897,1.5149 1.98739897,1.9745 l -0.3064,0.3063 a 0.2645789,0.2645789 0 0 0 0,0.3741 0.2645789,0.2645789 0 0 0 0.3742,0 l 1.6485,-1.6485 a 0.2645789,0.2645789 0 0 0 10e-5,-2e-4 0.2645789,0.2645789 0 0 0 4e-4,-3e-4 l 3.5426,-3.5425 a 0.2645789,0.2645789 0 0 0 0,-0.3742 0.2645789,0.2645789 0 0 0 -0.187,-0.077 z m -2.5956,0.647 c 0.5342,2e-4 1.0633,0.094 1.5637,0.2753 l -0.6325,0.6324 c -0.2701,-0.1927 -0.5954,-0.2983 -0.9315,-0.2983 -0.8827,0 -1.604,0.7213 -1.604,1.6039 0,0.3361 0.1056,0.6614 0.2983,0.9315 l -0.7797,0.7798 c -0.761,-0.3884 -1.3986,-0.9818 -1.841199,-1.7131 0.830599,-1.37 2.317399,-2.2113 3.926899,-2.2115 z m 2.9964,0.4926 a 0.2645789,0.2645789 0 0 0 -0.052,0 0.2645789,0.2645789 0 0 0 -0.1759,0.1002 0.2645789,0.2645789 0 0 0 0.047,0.3712 c 0.4441,0.345 0.8198,0.769 1.1105,1.2492 -0.83,1.3699 -2.3164,2.2114 -3.9256,2.2121 -0.2779,-10e-5 -0.5552,-0.025 -0.8285,-0.076 a 0.2645789,0.2645789 0 0 0 -0.3081,0.2124 0.2645789,0.2645789 0 0 0 0.2124,0.308 c 0.3048,0.056 0.614,0.084 0.9239,0.084 a 0.26460536,0.26460536 0 0 0 3e-4,0 c 1.8501,-7e-4 3.5571,-1 4.4634,-2.6129 a 0.26460536,0.26460536 0 0 0 0,-0.2593 c -0.3345,-0.5951 -0.7846,-1.1174 -1.3238,-1.5362 a 0.2645789,0.2645789 0 0 0 -0.1434,-0.055 z m -2.9967,0.6459 c 0.1952,0 0.3847,0.053 0.5496,0.1512 l -1.4733,1.4732 c -0.098,-0.1649 -0.1512,-0.3544 -0.1512,-0.5496 0,-0.5967 0.4781,-1.0748 1.0749,-1.0748 z" fill="#000000" fill-rule="evenodd" stroke-width="0.00743187" stroke-linecap="round" stroke-linejoin="round"/></g><text x="0" y="25.583334" fill="#000000" font-size="5px" font-weight="bold" font-family="'Helvetica Neue', Helvetica, Arial-Unicode, Arial, Sans-serif">Created by Larea</text><text x="0" y="30.583334" fill="#000000" font-size="5px" font-weight="bold" font-family="'Helvetica Neue', Helvetica, Arial-Unicode, Arial, Sans-serif">from the Noun Project</text></svg>